# xmcd
# 
# Track frame offsets:
#	150
#	13060
#	27783
#	41283
#	58875
#	76030
#	90830
#	108448
#	128748
#	145113
#	158708
#	172433
#	190693
#
# Disc length: 2730 seconds
#
# Revision: 1
# Processed by: cddbd v1.4PL0 Copyright (c) Steve Scherf et al.
# Submitted via: Audio-CD-Archiv 2.10.441
#
DISCID=9b0aa80d
DTITLE=Orginal Zitronentaler - Passt scho!
DYEAR=1900
DGENRE=country
TTITLE0=Horoskop
TTITLE1=Du und i
TTITLE2=Sche´ wird jeder Tag
TTITLE3=A Garantie gibt´s nie
TTITLE4=Von Federn auf Stroh
TTITLE5=A Jodler und a Stromgitar´
TTITLE6=Hugo Hubraum ( küsst Susi Spoiler )
TTITLE7=Obdachlos
TTITLE8=Komm, sei stark
TTITLE9=Wo i a bin
TTITLE10=Da Geier
TTITLE11=Wischer links, Wischer rechts
TTITLE12=Oder so...
EXTD=
EXTT0=
EXTT1=
EXTT2=
EXTT3=
EXTT4=
EXTT5=
EXTT6=
EXTT7=
EXTT8=
EXTT9=
EXTT10=
EXTT11=
EXTT12=
PLAYORDER=
